%YAML 1.1
%TAG !u! tag:unity3d.com,2011:
--- !u!43 &4300000
Mesh:
  m_ObjectHideFlags: 0
  m_CorrespondingSourceObject: {fileID: 0}
  m_PrefabInstance: {fileID: 0}
  m_PrefabAsset: {fileID: 0}
  m_Name: SM_Wall_D_5
  serializedVersion: 11
  m_SubMeshes:
  - serializedVersion: 2
    firstByte: 0
    indexCount: 12
    topology: 0
    baseVertex: 0
    firstVertex: 0
    vertexCount: 8
    localAABB:
      m_Center: {x: 0, y: 0.00000011920929, z: 0}
      m_Extent: {x: 2.000001, y: 2.000001, z: 0.026132584}
  m_Shapes:
    vertices: []
    shapes: []
    channels: []
    fullWeights: []
  m_BindPose: []
  m_BoneNameHashes: 
  m_RootBoneNameHash: 0
  m_BonesAABB: []
  m_VariableBoneCountWeights:
    m_Data: 
  m_MeshCompression: 0
  m_IsReadable: 0
  m_KeepVertices: 1
  m_KeepIndices: 1
  m_IndexFormat: 0
  m_IndexBuffer: 000001000200000003000100040005000600060005000700
  m_VertexData:
    serializedVersion: 3
    m_VertexCount: 8
    m_Channels:
    - stream: 0
      offset: 0
      format: 0
      dimension: 3
    - stream: 0
      offset: 12
      format: 0
      dimension: 3
    - stream: 0
      offset: 24
      format: 0
      dimension: 4
    - stream: 0
      offset: 0
      format: 0
      dimension: 0
    - stream: 0
      offset: 40
      format: 0
      dimension: 2
    - stream: 0
      offset: 0
      format: 0
      dimension: 0
    - stream: 0
      offset: 0
      format: 0
      dimension: 0
    - stream: 0
      offset: 0
      format: 0
      dimension: 0
    - stream: 0
      offset: 0
      format: 0
      dimension: 0
    - stream: 0
      offset: 0
      format: 0
      dimension: 0
    - stream: 0
      offset: 0
      format: 0
      dimension: 0
    - stream: 0
      offset: 0
      format: 0
      dimension: 0
    - stream: 0
      offset: 0
      format: 0
      dimension: 0
    - stream: 0
      offset: 0
      format: 0
      dimension: 0
    m_DataSize: 384
    _typelessdata: 040000c0040000400014d63c00000000000000000000803f000000000000803f00000000000080bfb7627f3f52491d3b04000040030000c00014d63c00000000000000000000803f000000000000803f00000000000080bf6f12033bee7c7f3f04000040040000400014d63c00000000000000000000803f000000000000803f00000000000080bfb7627f3fee7c7f3f040000c0030000c00014d63c00000000000000000000803f000000000000803f00000000000080bf6f12033b52491d3b040000c0030000c00014d6bc0000000000000000000080bf000000000000803f000000000000803f6f12033b52491d3b040000c0040000400014d6bc0000000000000000000080bf000000000000803f000000000000803fb7627f3f52491d3b04000040030000c00014d6bc0000000000000000000080bf000000000000803f000000000000803f6f12033bee7c7f3f04000040040000400014d6bc0000000000000000000080bf000000000000803f000000000000803fb7627f3fee7c7f3f
  m_CompressedMesh:
    m_Vertices:
      m_NumItems: 0
      m_Range: 0
      m_Start: 0
      m_Data: 
      m_BitSize: 0
    m_UV:
      m_NumItems: 0
      m_Range: 0
      m_Start: 0
      m_Data: 
      m_BitSize: 0
    m_Normals:
      m_NumItems: 0
      m_Range: 0
      m_Start: 0
      m_Data: 
      m_BitSize: 0
    m_Tangents:
      m_NumItems: 0
      m_Range: 0
      m_Start: 0
      m_Data: 
      m_BitSize: 0
    m_Weights:
      m_NumItems: 0
      m_Data: 
      m_BitSize: 0
    m_NormalSigns:
      m_NumItems: 0
      m_Data: 
      m_BitSize: 0
    m_TangentSigns:
      m_NumItems: 0
      m_Data: 
      m_BitSize: 0
    m_FloatColors:
      m_NumItems: 0
      m_Range: 0
      m_Start: 0
      m_Data: 
      m_BitSize: 0
    m_BoneIndices:
      m_NumItems: 0
      m_Data: 
      m_BitSize: 0
    m_Triangles:
      m_NumItems: 0
      m_Data: 
      m_BitSize: 0
    m_UVInfo: 0
  m_LocalAABB:
    m_Center: {x: 0, y: 0.00000011920929, z: 0}
    m_Extent: {x: 2.000001, y: 2.000001, z: 0.026132584}
  m_MeshUsageFlags: 0
  m_CookingOptions: 30
  m_BakedConvexCollisionMesh: 
  m_BakedTriangleCollisionMesh: 
  m_MeshMetrics[0]: 16.141748
  m_MeshMetrics[1]: 1
  m_MeshOptimizationFlags: -1
  m_StreamData:
    serializedVersion: 2
    offset: 0
    size: 0
    path: 
